<mxfile host="app.diagrams.net" modified="2020-10-25T21:08:49.992Z" agent="5.0 (Windows NT 10.0; Win64; x64) AppleWebKit/537.36 (KHTML, like Gecko) Chrome/86.0.4240.111 Safari/537.36" etag="6HAAs_lpdAmFW6uT7tCp" version="13.8.2" type="github">
  <diagram id="mXREiZ1FNoDaDJk69WIs" name="Page-1">
    <mxGraphModel dx="1422" dy="762" grid="1" gridSize="10" guides="1" tooltips="1" connect="1" arrows="1" fold="1" page="1" pageScale="1" pageWidth="850" pageHeight="1100" math="0" shadow="0">
      <root>
        <mxCell id="0" />
        <mxCell id="1" parent="0" />
        <mxCell id="mgKqRaWe-9zcaW5af3w4-29" value="" style="edgeStyle=orthogonalEdgeStyle;rounded=0;orthogonalLoop=1;jettySize=auto;html=1;" edge="1" parent="1" source="mgKqRaWe-9zcaW5af3w4-8" target="mgKqRaWe-9zcaW5af3w4-28">
          <mxGeometry relative="1" as="geometry" />
        </mxCell>
        <mxCell id="mgKqRaWe-9zcaW5af3w4-8" value="uController" style="rounded=0;whiteSpace=wrap;html=1;" vertex="1" parent="1">
          <mxGeometry x="320" y="360" width="160" height="80" as="geometry" />
        </mxCell>
        <mxCell id="mgKqRaWe-9zcaW5af3w4-14" value="7-segment" style="rounded=0;whiteSpace=wrap;html=1;" vertex="1" parent="1">
          <mxGeometry x="340" y="510" width="120" height="60" as="geometry" />
        </mxCell>
        <mxCell id="mgKqRaWe-9zcaW5af3w4-15" value="" style="endArrow=classic;html=1;exitX=0.5;exitY=1;exitDx=0;exitDy=0;" edge="1" parent="1" source="mgKqRaWe-9zcaW5af3w4-8" target="mgKqRaWe-9zcaW5af3w4-14">
          <mxGeometry width="50" height="50" relative="1" as="geometry">
            <mxPoint x="400" y="450" as="sourcePoint" />
            <mxPoint x="450" y="370" as="targetPoint" />
          </mxGeometry>
        </mxCell>
        <mxCell id="mgKqRaWe-9zcaW5af3w4-23" style="edgeStyle=orthogonalEdgeStyle;rounded=0;orthogonalLoop=1;jettySize=auto;html=1;exitX=0.5;exitY=1;exitDx=0;exitDy=0;entryX=0;entryY=0.25;entryDx=0;entryDy=0;" edge="1" parent="1" source="mgKqRaWe-9zcaW5af3w4-16" target="mgKqRaWe-9zcaW5af3w4-8">
          <mxGeometry relative="1" as="geometry" />
        </mxCell>
        <mxCell id="mgKqRaWe-9zcaW5af3w4-16" value="Touch Sensor" style="ellipse;whiteSpace=wrap;html=1;aspect=fixed;" vertex="1" parent="1">
          <mxGeometry x="100" y="280" width="80" height="80" as="geometry" />
        </mxCell>
        <mxCell id="mgKqRaWe-9zcaW5af3w4-22" style="edgeStyle=orthogonalEdgeStyle;rounded=0;orthogonalLoop=1;jettySize=auto;html=1;exitX=0.5;exitY=0;exitDx=0;exitDy=0;entryX=0;entryY=0.75;entryDx=0;entryDy=0;" edge="1" parent="1" source="mgKqRaWe-9zcaW5af3w4-17" target="mgKqRaWe-9zcaW5af3w4-8">
          <mxGeometry relative="1" as="geometry" />
        </mxCell>
        <mxCell id="mgKqRaWe-9zcaW5af3w4-17" value="Touch Sensor" style="ellipse;whiteSpace=wrap;html=1;aspect=fixed;" vertex="1" parent="1">
          <mxGeometry x="100" y="440" width="80" height="80" as="geometry" />
        </mxCell>
        <mxCell id="mgKqRaWe-9zcaW5af3w4-26" style="edgeStyle=orthogonalEdgeStyle;rounded=0;orthogonalLoop=1;jettySize=auto;html=1;exitX=0;exitY=0.5;exitDx=0;exitDy=0;entryX=1;entryY=0.5;entryDx=0;entryDy=0;" edge="1" parent="1" source="mgKqRaWe-9zcaW5af3w4-24" target="mgKqRaWe-9zcaW5af3w4-8">
          <mxGeometry relative="1" as="geometry" />
        </mxCell>
        <mxCell id="mgKqRaWe-9zcaW5af3w4-24" value="Rotary Encoder" style="rounded=0;whiteSpace=wrap;html=1;" vertex="1" parent="1">
          <mxGeometry x="560" y="370" width="120" height="60" as="geometry" />
        </mxCell>
        <mxCell id="mgKqRaWe-9zcaW5af3w4-28" value="" style="html=1;verticalLabelPosition=bottom;align=center;labelBackgroundColor=#ffffff;verticalAlign=top;strokeWidth=2;strokeColor=#0080F0;shadow=0;dashed=0;shape=mxgraph.ios7.icons.wifi;pointerEvents=1" vertex="1" parent="1">
          <mxGeometry x="355" y="210" width="90" height="60" as="geometry" />
        </mxCell>
      </root>
    </mxGraphModel>
  </diagram>
</mxfile>
